<?xml version="1.0" standalone="no"?><!DOCTYPE svg PUBLIC "-//W3C//DTD SVG 1.1//EN" "http://www.w3.org/Graphics/SVG/1.1/DTD/svg11.dtd"><svg t="1703043299099" class="icon" viewBox="0 0 1024 1024" version="1.1" xmlns="http://www.w3.org/2000/svg" p-id="1275" xmlns:xlink="http://www.w3.org/1999/xlink" width="200" height="200"><path d="M512 141.21142578a370.78857422 370.78857422 0 1 1 0 741.57714844A370.78857422 370.78857422 0 0 1 512 141.21142578z m0 52.9486084a317.83996582 317.83996582 0 1 0 0 635.67993165A317.83996582 317.83996582 0 0 0 512 194.16003418z m-63.62731934 165.3717041c4.89440918 0 9.71466065 1.33483887 13.9416504 3.93035889l168.63464355 103.82080078a52.9486084 52.9486084 0 0 1 0 90.24993897l-168.63464356 103.82080077a26.4743042 26.4743042 0 0 1-40.41595459-22.54394531V386.00604248c0-14.60906982 11.86523438-26.4743042 26.47430421-26.4743042z" p-id="1276"></path></svg>