<?xml version="1.0" standalone="no"?><!DOCTYPE svg PUBLIC "-//W3C//DTD SVG 1.1//EN" "http://www.w3.org/Graphics/SVG/1.1/DTD/svg11.dtd"><svg t="1703043303810" class="icon" viewBox="0 0 1024 1024" version="1.1" xmlns="http://www.w3.org/2000/svg" p-id="1418" xmlns:xlink="http://www.w3.org/1999/xlink" width="200" height="200"><path d="M512 141.21142578a370.78857422 370.78857422 0 1 1 0 741.57714844A370.78857422 370.78857422 0 0 1 512 141.21142578z m0 52.9486084a317.83996582 317.83996582 0 1 0 0 635.67993165A317.83996582 317.83996582 0 0 0 512 194.16003418z m0 138.97155762c11.86523438 0 21.65405273 9.78881836 21.65405273 21.72821044v327.33215333A21.80236817 21.80236817 0 0 1 512 703.92016602a21.80236817 21.80236817 0 0 1-21.72821045-21.72821045V354.85980224c0-11.93939209 9.78881836-21.72821045 21.72821045-21.72821044z m-89.87915039 69.55993652c11.93939209 0 21.72821045 9.71466065 21.72821045 21.72821045v188.28643798a21.80236817 21.80236817 0 0 1-21.72821045 21.72821046 21.80236817 21.80236817 0 0 1-21.72821045-21.72821045v-188.36059571c0-11.86523438 9.78881836-21.65405273 21.72821045-21.65405272z m179.60998536 0c11.93939209 0 21.72821045 9.71466065 21.72821044 21.72821045v188.28643798a21.80236817 21.80236817 0 0 1-21.72821045 21.72821046 21.80236817 21.80236817 0 0 1-21.72821045-21.72821045v-188.36059571c0-11.86523438 9.78881836-21.65405273 21.72821045-21.65405272z m-269.41497804 46.34857178c11.93939209 0 21.72821045 9.71466065 21.72821045 21.72821045v95.58929443a21.80236817 21.80236817 0 0 1-21.72821045 21.72821045 21.80236817 21.80236817 0 0 1-21.72821045-21.72821045v-95.66345215c0-11.86523438 9.78881836-21.65405273 21.72821045-21.65405273z m359.2199707 0c11.93939209 0 21.72821045 9.71466065 21.72821045 21.72821045v95.58929443a21.80236817 21.80236817 0 0 1-21.72821045 21.72821045 21.80236817 21.80236817 0 0 1-21.72821044-21.72821045v-95.66345215c0-11.86523438 9.78881836-21.65405273 21.72821044-21.65405273z" p-id="1419"></path></svg>