<?xml version="1.0" standalone="no"?><!DOCTYPE svg PUBLIC "-//W3C//DTD SVG 1.1//EN" "http://www.w3.org/Graphics/SVG/1.1/DTD/svg11.dtd"><svg t="1702564287775" class="icon" viewBox="0 0 1024 1024" version="1.1" xmlns="http://www.w3.org/2000/svg" p-id="1644" xmlns:xlink="http://www.w3.org/1999/xlink" width="200" height="200"><path d="M1021.792 397.17c-2.982-9.105-10.831-15.856-20.406-17.112l-322.437-46.936L534.683 40.826c-4.24-8.634-13.03-14.129-22.607-14.129s-18.366 5.495-22.607 14.129L345.203 333.122 22.609 380.058c-9.577 1.413-17.425 8.007-20.406 17.112s-0.471 19.151 6.437 25.901l233.43 227.464-55.1 321.182c-1.568 9.419 2.198 18.994 10.046 24.646s18.052 6.437 26.529 1.885l288.53-151.642 288.53 151.642c3.767 1.885 7.692 2.826 11.774 2.826 5.181 0 10.361-1.568 14.755-4.866 7.692-5.651 11.616-15.228 10.046-24.646l-55.1-321.182 233.43-227.464c6.751-6.593 9.26-16.641 6.279-25.744z" fill="" p-id="1645"></path></svg>